
<svg xmlns="http://www.w3.org/2000/svg" version="1.1" xmlns:xlink="http://www.w3.org/1999/xlink" preserveAspectRatio="none" x="0px" y="0px" width="800px" height="800px" viewBox="0 0 800 800">
<defs>
<radialGradient id="Gradient_1" gradientUnits="userSpaceOnUse" cx="0" cy="0" r="30.14274373709202" fx="0" fy="0" gradientTransform="matrix( 0.986970537900678, -0.1609010792880097, 0.20900552567308475, 1.2830616992708814, -20.2,1.25) " spreadMethod="pad">
<stop  offset="0%" stop-color="#39C0CE"/>

<stop  offset="100%" stop-color="#2EABB8"/>
</radialGradient>

<radialGradient id="Gradient_2" gradientUnits="userSpaceOnUse" cx="0" cy="0" r="34.65141591623638" fx="0" fy="0" gradientTransform="matrix( 0.986972655970896, -0.16088808646309197, 0.20886592390612163, 1.2831365998861393, -26.8,4.55) " spreadMethod="pad">
<stop  offset="0%" stop-color="#39C0CE"/>

<stop  offset="100%" stop-color="#2EABB8"/>
</radialGradient>

<linearGradient id="Gradient_3" gradientUnits="userSpaceOnUse" x1="378.7625" y1="180.85" x2="472.2375" y2="189.04999999999998" spreadMethod="pad">
<stop  offset="0%" stop-color="#369AA8"/>

<stop  offset="100%" stop-color="#2EABB8"/>
</linearGradient>

<radialGradient id="Gradient_4" gradientUnits="userSpaceOnUse" cx="0" cy="0" r="142.38750000000005" fx="0" fy="0" gradientTransform="matrix( 0.9999999999999998, 0, 0, 1.3214818716530592, 367.5,169.5) " spreadMethod="pad">
<stop  offset="16.470588235294116%" stop-color="#2EABB8"/>

<stop  offset="100%" stop-color="#55C8D5"/>
</radialGradient>

<g id="shadow2_0_Layer0_0_FILL">
<path fill="#999999" fill-opacity="0.27058823529411763" stroke="none" d="
M 135.75 -14.05
Q 79.55 -19.75 0 -19.75 -79.5 -19.75 -135.7 -14.05 -191.9 -8.2 -191.9 0 -191.9 8.25 -135.7 13.95 -79.5 19.8 0 19.8 79.55 19.8 135.75 13.95 191.95 8.25 191.95 0 191.95 -8.2 135.75 -14.05 Z"/>
</g>

<g id="bilbo_foot_0_Layer0_0_FILL">
<path fill="#99DEE6" stroke="none" d="
M 5.55 15.95
Q 0 5.1 -7.3 15.95 -0.9 16.1 5.55 15.95
M -7.35 15.95
Q -10.8 1.65 -21.5 14.95 -14.5 15.7 -7.35 15.95 Z"/>

<path fill="url(#Gradient_1)" stroke="none" d="
M 5.55 15.95
Q 10.35 15.8 15.15 15.45
L 22.45 -25.75 -2 -27.2 -21.5 14.95
Q -10.8 1.65 -7.35 15.95
L -7.3 15.95
Q 0 5.1 5.55 15.95 Z"/>
</g>

<g id="bilbo_foot_1_Layer0_0_FILL">
<path fill="#99DEE6" stroke="none" d="
M -7.1 15.65
Q -0.373046875 16.0876953125 5.55 15.95 0.076171875 5.2490234375 -7.1 15.65
M -19.55 11
L -7.45 15.5
Q -3.0314453125 -3.7677734375 -19.55 11 Z"/>

<path fill="url(#Gradient_2)" stroke="none" d="
M 19.25 -35.45
L -1.95 -34.45
Q -20.1595703125 5.6544921875 -19.6 10.95
L -19.55 11
Q -3.0314453125 -3.7677734375 -7.45 15.5
L -7.1 15.65
Q 0.076171875 5.2490234375 5.55 15.95 10.35 15.8 15.15 15.45
L 19.25 -35.45 Z"/>
</g>

<g id="bilbo_tail_19_Layer0_0_FILL">
<path fill="#4C6F74" stroke="none" d="
M 10.8 -0.5
Q 11.85 -2.4 12.25 -4 12.65 -5.85 12.55 -8.2 12.5 -10.55 12 -12.35 11.5 -14.1 10.2 -16.3 9.1 -18.25 7.75 -19.95 6.5 -21.4 4.6 -23.05 2.85 -24.65 1.1 -25.75 -0.65 -26.95 -2.75 -27.9 -5 -29.1 -6.85 -29.55 -10.25 -30.4 -14 -31 -18.1 -31.65 -21.2 -31.65 -24 -31.65 -27.85 -30.95 -31.1 -30.45 -34.45 -29.55 -36.45 -28.95 -38.65 -28 -41.05 -27 -42.7 -25.85 -43.3 -25.45 -43.95 -24.3 -44.3 -23.45 -43.95 -23.25 -41 -23.9 -34.3 -26.45 -27.65 -29 -24.65 -29.65 -22.25 -30.05 -18.85 -30 -16 -29.9 -13.05 -29.45 -10.2 -29 -7.85 -28.25 -4.75 -27.4 -2.95 -26.2 2.4 -22.65 4.35 -21.05 8.6 -17.5 9.8 -14.3 11.1 -10.9 10.4 -5.9 9.7 -1.1 7.7 2.1 6.5 4 2.4 5.4 -3.4 7.3 -3.9 7.5 -5.85 8.55 -7.75 9.65 -10 10.95 -11.5 12.05 -12.8 12.95 -15.5 15.35 -17.5 17.25 -17.9 17.6
L -17.85 18.6
Q -17.65 18.5 -16.1 17.7 -14.1 16.7 -13.4 16.15 -12.3 15.35 -10.15 13.25
L -8.15 11.35 -9.35 17.85
Q -10.25 22.7 -10.55 24.35
L -10.45 24.4 -10.4 24.45 -9.9 23.7
Q -9.7 23.25 -9.55 22.35 -9.45 21.7 -9.3 21.15 -9.2 20.4 -8.95 19.65 -8.85 18.8 -8.75 18.2 -8.7 18 -8.65 17.5 -8.6 17 -8.55 16.8
L -8.5 16.7
Q -8.35 16.95 -8.25 17.45
L -8.05 18.15
Q -7.9 18.6 -7.7 19.15 -7.55 19.5 -7.4 20.15 -7.25 20.55 -7.1 21.05 -6.9 21.5 -6.8 21.85
L -6.45 22.5 -6.2 22.7 -5.95 22.7
Q -5.9 22.55 -6.05 22.2 -6.15 21.9 -6.2 21.65 -6.3 21.35 -6.45 21.05 -6.55 20.6 -6.6 20.35 -6.7 18.8 -6.85 17 -7.05 14.85 -6.8 13.65 -6.6 12.8 -5.75 11.65 -5.15 10.85 -4.2 10.05 -3.55 9.5 -2.4 8.95 -1.3 8.5 -0.4 8 0 7.85 1.75 6.95 3.15 6.25 3.9 5.9 5.05 5.15 6.4 4.35 7.95 3.4 8.7 2.55 9.85 1.2 10.8 -0.5 Z"/>
</g>

<g id="bilbo_mouth_int_0_Layer0_0_FILL">
<path fill="#1D6B74" stroke="none" d="
M -2 -84.75
L -32.15 -61.75
Q 16.9 54.4 -31.45 106.25
L 30.3 105.55
Q 64.0861328125 -9.0373046875 -2 -84.75 Z"/>
</g>

<g id="bilbo_body_19_Layer4_0_FILL">
<path fill="#E08DBF" stroke="none" d="
M 32.1 88.85
Q 55.4 46.85 6.7 66.85 -19.65 77.65 -23.75 101.15 -27.95 124.6 3.25 115.75 20.5 109.9 32.1 88.85 Z"/>
</g>

<g id="bilbo_body_19_Layer3_0_FILL">
<path fill="#2EABB8" stroke="none" d="
M 118.05 -144.55
Q 114.2 -144.4 110.95 -144.15 107.6 -143.95 103.15 -143.55 99.1 -143.2 95.35 -142.8 92.3 -142.45 87.7 -141.9 84.75 -141.55 80.1 -140.95
L 73.4 -140.05
Q 69.25 -139.5 66.7 -139.05 64.15 -138.65 57.4 -137.25 51.1 -135.95 48.1 -135.5 42.65 -134.65 31.65 -133.2 19.2 -131.6 15.2 -131 11 -130.4 -7.9 -127.4 -23 -124.95 -31.05 -124 -46.85 -122 -59.4 -120.7 -76.25 -118.95 -87.8 -118.25 -95.2 -117.8 -109.3 -117.95 -126.7 -118.1 -130.8 -118.05 -138.55 -118 -147.1 -117.9 -157.3 -117.7 -163.35 -116.85 -167.45 -116.3 -173.75 -114.25 -179.1 -112.4 -183.95 -110.7 -187.3 -109.5 -193.05 -107.15 -197.8 -105.2 -202.1 -103.45
L -208.9 -100.55
Q -213.3 -98.7 -215.85 -97.9 -218.55 -97.05 -221.9 -96.3 -225.3 -95.55 -228.1 -95.25 -229.95 -95.05 -232.7 -95.15 -234.75 -95.25 -237.35 -95.5 -239 -95.65 -240.9 -96.05 -242.85 -96.4 -244.4 -96.85 -245.9 -97.3 -248 -98.15 -249.6 -98.8 -251.55 -99.7
L -254.4 -101
Q -256.1 -101.85 -257.05 -102.6 -258.45 -103.65 -259.45 -104.6 -260.8 -105.9 -261.35 -107.05
L -261.1 -108.7 -260.55 -109.8 -258.6 -110.95 -258.05 -111.4 -257.3 -112.2 -256.95 -112.9 -256.75 -113.65 -256.65 -114.45 -256.6 -116.85 -256.85 -118.4 -257.3 -119.75 -257.7 -120.4 -258.95 -121.55 -259.8 -121.9 -260.8 -121.4 -261.65 -120.55 -262.3 -119.35 -262.75 -118 -263.85 -112.85 -265.95 -108.65 -266.5 -107.85 -268.25 -106.15 -270.25 -104.9 -273.55 -104.2 -274.8 -103.65 -275.3 -103.25 -275.7 -102.8 -275.9 -102.25 -275.8 -101.3 -275.55 -100.35 -274.85 -99.3 -273.55 -97.85 -272.45 -97.1 -271.85 -96.85 -271.3 -96.8 -270.75 -96.85 -270.25 -97 -269.8 -97.2 -269.25 -97.65 -268.85 -98.15 -268.5 -99.1 -268 -99.85
Q -266.4 -100.25 -264.9 -100.35 -263.05 -100.45 -261.9 -99.95 -259.45 -98.95 -255.05 -95.9 -250.05 -92.45 -248.3 -91.55 -245.85 -90.25 -242.7 -89 -239.6 -87.7 -236.95 -86.95 -234.45 -86.2 -231.15 -85.55 -228.05 -84.95 -225.3 -84.65 -222.85 -84.4 -219.25 -84.35 -216.5 -84.35 -213.2 -84.4 -211.4 -84.45 -207.15 -84.9 -202.95 -85.3 -201.15 -85.35
L -194.9 -85.45
Q -191.1 -85.45 -188.75 -85 -185.65 -84.4 -182.25 -83.2 -178.7 -81.95 -176.15 -80.5 -173.7 -79.05 -170.7 -76.55 -168.05 -74.3 -165.8 -71.85 -164.2 -70.1 -162 -66.75 -160.15 -63.9 -158.55 -61.35 -157.6 -59.9 -155.1 -55.65 -152.85 -51.8 -151.6 -50 -149.9 -47.55 -147.45 -44.45 -145.25 -41.6 -143.1 -39.05 -141.9 -37.65 -140.1 -35.8 -138.55 -34.2 -136.95 -32.75 -135.7 -31.55 -133.65 -29.8 -132.75 -29.1 -130.2 -27
L -124.6 -22.8
Q -119.45 -19.95 -113.75 -16.8 -106.9 -13.1 -102.45 -11.9 -97.65 -10.6 -91.85 -10.35 -85.7 -10.05 -81.2 -11.1 -76.25 -12.2 -70.1 -15.35 -64.45 -18.25 -59.95 -21.7 -55.55 -25 -48.55 -32.65 -39.65 -42.4 -37.7 -44.25 -34.2 -47.95 -30.35 -52.15 -25.6 -57.05 -21.85 -58.2 -18.7 -59.2 -14.15 -57.75 -9.75 -56.35 -7.3 -53.8 -3.45 -49.75 0.05 -42.65 3 -36.6 4.95 -30.05 7.75 -20.75 9.9 -8.6 12 3.15 12.75 13.25 13.75 27.45 13.75 35.7 13.75 49.35 11.4 57.85 9.3 65.65 4.4 73.4 -1 81.85 -7 85.7 -13.25 89.7 -22.95 91.2 -32.55 92.65 -39.8 90.75 -49.55 88.15 -62.5 80.15 -71.4 74.65 -83.2 65.6 -90.75 59.85 -101.1 49.1 -104.75 45.3 -117.65 31.2 -119.35 29.3 -123.7 22.35 -127.45 16.25 -130.25 14.05 -131.25 13.95 -132.1 15.5 -132.9 17.45 -132.9 19 -132.85 21.45 -131.9 24.9 -131.2 27.5 -130 30.6 -128.8 33.75 -126.6 38.05 -124.9 41.4 -122.7 45.25 -120.7 48.8 -118.15 52.9 -115.5 57.05 -113.25 60.25 -111 63.45 -108.05 67.15 -105.1 70.9 -102.5 73.8 -99.55 77.1 -95.95 80.85 -92.15 84.7 -89.05 87.55 -85.85 90.5 -81.65 93.95 -77.55 97.35 -74 100 -70.8 102.35 -66.85 105 -62.8 107.65 -59.45 109.6 -54.9 112.2 -49.3 115.15 -43.6 118.1 -38.9 120.25 -33.8 122.6 -27.7 125.1 -21.35 127.65 -16.25 129.45 -10.85 131.35 -4.25 133.35 2.45 135.35 7.9 136.7 12.75 137.85 18.6 138.95 24.55 140.1 29.4 140.7 35.85 141.5 43.75 142.15 51.7 142.8 58.15 143.05 65.05 143.3 72.85 143.25 81.2 143.2 87.6 142.8 94.85 142.35 103.4 141.4 112.2 140.45 119.15 139.3 125.05 138.35 132.3 136.7 139.45 135.05 145.25 133.35 151.2 131.65 158.85 128.9 166 126.35 172.25 123.8 178.1 121.45 184.1 118.65 190.8 115.5 195.6 112.85 202.05 109.25 208.05 105.4 215.2 100.85 219.95 97.15 224.25 93.8 228.6 89.5 233.3 84.9 236.25 80.9 239.1 77.15 242 71.7 244.75 66.55 246.6 61.8 248.5 56.8 250.5 49.25 252 43.45 253.45 36.4 254.35 32 255.1 25.7 255.75 20.6 256.25 14.95 256.7 9.4 257 2.25 257.3 -4.55 257.4 -10.5 257.4 -14.8 257.25 -19.75 257.05 -24.95 256.7 -28.95 256.35 -33.1 255.5 -38.75 254.8 -43.65 253.95 -48.5 253.15 -52.8 252 -58.25 250.9 -63.5 249.75 -67.95 248.75 -72.2 247.4 -76.95 245.95 -82.05 244.7 -85.85 243.5 -89.65 241.95 -93.85 240.25 -98.35 238.8 -101.7 237.5 -104.7 235.75 -108.2 234 -111.75 232.4 -114.5 230.9 -117 229.15 -119.65 227.2 -122.5 225.55 -124.5 224.1 -126.25 222.15 -128.1 220.15 -130.05 218.4 -131.35 216.95 -132.45 214.9 -133.6 212.9 -134.65 211.1 -135.4 209.2 -136.15 206.05 -137 204.7 -137.35 200.95 -138.3 199.55 -138.65 197.4 -139 195.9 -139.3 193.9 -139.65 191.25 -140.05 187.75 -140.55 184.55 -141 181.6 -141.4 178.3 -141.8 175.05 -142.2 171.25 -142.65 168.5 -142.9 165.2 -143.25 161.25 -143.55 157.25 -143.85 154 -144.05 150.55 -144.3 146.55 -144.45 142.35 -144.65 139.1 -144.75 135.8 -144.8 132.15 -144.85 128.2 -144.85 125.2 -144.8 122.05 -144.75 118.05 -144.55 Z"/>
</g>

<g id="bilbo_body_19_Layer2_0_FILL">
<path fill="url(#Gradient_3)" stroke="none" d="
M 398.3 136.8
Q 392.4 140.7 386.85 146.9 381.3 153.1 377.6 161.35 374.1 169.1 373.85 178.7 373.65 187.95 375.3 197.45 375.95 201.35 377.85 204.8 378.8 206.65 379.65 208.45 384.05 217.85 391.25 226 397.8 233.55 406 238.9 414.25 244.35 423.05 246.85 426.2 248.15 429.3 247.75 433.75 247.15 436.1 243.45 437.95 240.4 436.45 236 433 225.8 423.25 220.1 419.25 217.75 415.3 216.15 415.7 216.25 416.05 216.35 430.15 219.4 443.3 218.05 457.4 216.45 467.15 209.9 476.85 203.25 474.75 195.9 472.55 188.45 464.85 184.05 457.1 179.6 445.95 179.45 434.8 179.4 429.05 180.8 423.3 182.2 420.05 183.4 431.2 177.2 440.5 168.6 447.25 162.45 452.6 154.65 456.7 148.8 458.15 141.05 458.75 137.75 458 134.15 456.5 126.6 449.15 124.45 437.75 122.35 425.6 125 418 126.7 411.1 129.75 404.15 132.75 398.3 136.8 Z"/>
</g>

<g id="bilbo_brow_0_Layer0_0_FILL">
<path fill="#1D6B74" stroke="none" d="
M 334.35 161.95
Q 334.65 161.6 334.65 161.2 334.65 155.4 327.9 155.8 325.25 155.95 323.2 157.1 321.1 158.3 321.1 159.75 321.1 160.4 321.25 160 321.8 159.8 323.9 158.85 326 158 327.1 158 330.3 158 331.45 160.2 332.6 162.4 333.5 162.4 334 162.4 334.35 161.95 Z"/>
</g>

<g id="bilbo_eye_build_0_Layer1_0_FILL">
<path fill="#258B96" stroke="none" d="
M 341.25 190.1
Q 344.85 185.45 343.55 180.55 342.25 175.7 336.75 173.4 331.3 171.15 324.85 172.85 318.45 174.6 314.8 179.3 311.2 184 312.5 188.85 313.8 193.75 319.3 196 324.75 198.3 331.15 196.55 337.6 194.85 341.25 190.1 Z"/>
</g>

<g id="bilbo_eyeball_0_Layer0_0_FILL">
<path fill="#FFFFFF" stroke="none" d="
M 341.25 190.1
Q 344.85 185.45 343.55 180.55 342.25 175.7 336.75 173.4 331.3 171.15 324.85 172.85 318.45 174.6 314.8 179.3 311.2 184 312.5 188.85 313.8 193.75 319.3 196 324.75 198.3 331.15 196.55 337.6 194.85 341.25 190.1 Z"/>
</g>

<g id="bilbo_pupil_0_Layer0_0_FILL">
<path fill="#6666CC" stroke="none" d="
M 330.6 188.15
Q 332.5 185.55 332.5 181.85 332.5 178.15 330.6 175.55 328.7 172.95 326 172.95 323.3 172.95 321.4 175.55 319.5 178.15 319.5 181.85 319.5 185.55 321.4 188.15 323.3 190.75 326 190.75 328.7 190.75 330.6 188.15 Z"/>
</g>

<g id="bilbo_pupil_0_Layer0_1_FILL">
<path fill="#FFFFFF" stroke="none" d="
M 331.8 190.3
Q 332.75 189.4 332.75 188.1 332.75 186.8 331.8 185.85 330.85 184.95 329.5 184.95 328.15 184.95 327.2 185.85 326.25 186.8 326.25 188.1 326.25 189.4 327.2 190.3 328.15 191.25 329.5 191.25 330.85 191.25 331.8 190.3 Z"/>
</g>

<g id="bilbo_hat_0_Layer1_0_FILL">
<path fill="#E08DBF" stroke="none" d="
M 317.6 60.2
Q 311.25 52.5 302.25 52.5 293.25 52.5 286.85 60.2 280.7205078125 67.6326171875 280.5 78 303.4412109375 85.248828125 324 78 323.777734375 67.6326171875 317.6 60.2 Z"/>
</g>

<g id="bilbo_hat_0_Layer0_0_FILL">
<path fill="#CF5293" stroke="none" d="
M 358.7 83.85
L 364.35 69.8
Q 332.649609375 88.0091796875 297.75 70.1
L 305.95 84.45
Q 336.04765625 89.0279296875 358.7 83.85 Z"/>
</g>

<g id="bilbo_ear_0_Layer0_0_FILL">
<path fill="url(#Gradient_4)" stroke="none" d="
M 440.9 91.85
Q 429.5 92.7 417.35 98.45 409.7521484375 102.109375 402.8 106.9 395.9044921875 111.7431640625 390 117.2 384.1435546875 122.703125 378.6 130.3 373.0521484375 137.94921875 369.35 147.15 365.85 155.8 365.6 165.45 365.4 174.75 367.05 183.85 367.7 187.55 369.6 190.55 370.55 192.1 371.4 193.7 375.8 202 383 208.3 389.55 214.15 397.75 217.4 406 220.7 414.8 220.95 417.95 221.45 421.05 220.25 425.5 218.5 427.85 214.2 429.7 210.65 428.2 206.65 424.75 197.35 415 194.15 411 192.85 407.05 192.25 407.4259765625 192.2501953125 407.8 192.25 421.9 191.7 435.05 186.95 449.1453125 181.7453125 458.85 172.6 468.61953125 163.5173828125 466.45 156.65 464.312890625 149.81640625 456.55 147.35 448.844921875 144.945703125 437.7 147.7 426.5544921875 150.45 420.8 153.35 415.0435546875 156.25 411.8 158.3 422.95 149.2 432.25 138.2 439 130.3 444.35 121.15 448.45 114.25 449.9 106.15 450.5 102.7 449.75 99.25 448.25 92.1 440.9 91.85 Z"/>
</g>
</defs>

<g transform="matrix( 0.8529205322265625, 0, 0, 0.8529205322265625, 419.8,572.2) ">
<g transform="matrix( 1, 0, 0, 1, 0,0) ">
<g transform="matrix( 1, 0, 0, 1, 0,0) ">
<use xlink:href="#shadow2_0_Layer0_0_FILL"/>
</g>
</g>
</g>

<g transform="matrix( 1.1752777099609375, 0, 0, 1.1752777099609375, 466.7,533.4) ">
<g transform="matrix( 1.41058349609375, -0.0301055908203125, 0.034210205078125, 1.577789306640625, -34,-13) ">
<g transform="matrix( 1, 0, 0, 1, 0,0) ">
<use xlink:href="#bilbo_foot_0_Layer0_0_FILL"/>
</g>
</g>
</g>

<g transform="matrix( 1.1752777099609375, 0, 0, 1.1752777099609375, 370.6,533.4) ">
<g transform="matrix( 0.516143798828125, -1.317352294921875, 1.35504150390625, 0.5303955078125, 9.75,-7.75) ">
<g transform="matrix( 1, 0, 0, 1, 0,0) ">
<use xlink:href="#bilbo_foot_1_Layer0_0_FILL"/>
</g>
</g>
</g>

<g transform="matrix( 1.1752777099609375, 0, 0, 1.1752777099609375, 353.1,355.45) ">
<g transform="matrix( 1.4359893798828125, 0, 0, 1.4359893798828125, 240.6,-65.7) ">
<g transform="matrix( 1, 0, 0, 1, 0,0) ">
<use xlink:href="#bilbo_tail_19_Layer0_0_FILL"/>
</g>
</g>

<g transform="matrix( 1, 0, 0, 1, -43.6,22.2) ">
<g transform="matrix( 1, 0, 0, 1, -4.1,15.6) ">
<g transform="matrix( 1, 0, 0, 1, -4.8,-10.75) ">
<use xlink:href="#bilbo_mouth_int_0_Layer0_0_FILL"/>
</g>
</g>

<g transform="matrix( 1, 0, 0, 1, 0,0) ">
<use xlink:href="#bilbo_body_19_Layer4_0_FILL"/>
</g>

<g transform="matrix( 1, 0, 0, 1, 0,0) ">
<use xlink:href="#bilbo_body_19_Layer3_0_FILL"/>
</g>

<g transform="matrix( 1.43603515625, 0, 0, 1.43603515625, -500.55,-321.7) ">
<use xlink:href="#bilbo_body_19_Layer2_0_FILL"/>
</g>

<g transform="matrix( 1, 0, 0, 1, -50.8,-96.25) ">
<g transform="matrix( 1.43603515625, 0, 0, 1.43603515625, -470.85,-228.45) ">
<use xlink:href="#bilbo_brow_0_Layer0_0_FILL"/>
</g>
</g>

<g transform="matrix( 1, 0, 0, 1, -54.45,-65.25) ">
<g transform="matrix( -0.4142303466796875, 1.33306884765625, -1.2570648193359375, -0.3906402587890625, 369.3,-363.55) ">
<use xlink:href="#bilbo_eye_build_0_Layer1_0_FILL"/>
</g>

<g transform="matrix( 1, 0, 0, 1, 0,0) ">
<g transform="matrix( -0.3417816162109375, 1.0998992919921875, -1.03717041015625, -0.3223114013671875, 303.7,-301.25) ">
<use xlink:href="#bilbo_eyeball_0_Layer0_0_FILL"/>
</g>
</g>

<g transform="matrix( 1, 0, 0, 1, -2.85,-2.85) ">
<g transform="matrix( 1.43603515625, 0, 0, 1.43603515625, -468.3,-261.5) ">
<use xlink:href="#bilbo_pupil_0_Layer0_0_FILL"/>
</g>

<g transform="matrix( 1.43603515625, 0, 0, 1.43603515625, -468.3,-261.5) ">
<use xlink:href="#bilbo_pupil_0_Layer0_1_FILL"/>
</g>
</g>
</g>
</g>

<g transform="matrix( 1.4236297607421875, 0.1808319091796875, -0.1808319091796875, 1.4236297607421875, -67.5,-120.75) ">
<g transform="matrix( 0.8516082763671875, -0.2281951904296875, 0.1911773681640625, 0.713470458984375, -271,17.4) ">
<use xlink:href="#bilbo_hat_0_Layer1_0_FILL"/>
</g>

<g transform="matrix( 0.713470458984375, -0.1911773681640625, 0.1911773681640625, 0.713470458984375, -249.55,13.05) ">
<use xlink:href="#bilbo_hat_0_Layer0_0_FILL"/>
</g>
</g>

<g transform="matrix( 1.000823974609375, -0.05767822265625, 0.0269927978515625, 0.9978790283203125, 44.15,-55.1) ">
<g transform="matrix( 1.43603515625, 0, 0, 1.43603515625, -597.7,-224.7) ">
<use xlink:href="#bilbo_ear_0_Layer0_0_FILL"/>
</g>
</g>
</g>

<g transform="matrix( 1.1752777099609375, 0, 0, 1.1752777099609375, 382.1,541.6) ">
<g transform="matrix( 1.43603515625, 0, 0.24273681640625, 1.43603515625, -25.15,6.85) ">
<g transform="matrix( 1, 0, 0, 1, 0,0) ">
<use xlink:href="#bilbo_foot_0_Layer0_0_FILL"/>
</g>
</g>
</g>

<g transform="matrix( 1.1752777099609375, 0, 0, 1.1752777099609375, 476.1,541.6) ">
<g transform="matrix( 1.398284912109375, -0.080902099609375, 0.67010498046875, 1.43603515625, 15,6.65) ">
<g transform="matrix( 1, 0, 0, 1, 0,0) ">
<use xlink:href="#bilbo_foot_0_Layer0_0_FILL"/>
</g>
</g>
</g>
</svg>
