<?xml version="1.0" encoding="utf-8"?>
<!-- Generator: Adobe Illustrator 22.0.1, SVG Export Plug-In . SVG Version: 6.00 Build 0)  -->
<svg version="1.1" id="Layer_1" xmlns="http://www.w3.org/2000/svg" xmlns:xlink="http://www.w3.org/1999/xlink" x="0px" y="0px"
	 viewBox="0 0 30 30" enable-background="new 0 0 30 30" xml:space="preserve">
<path display="none" fill="#040000" d="M26.2,13.1c-0.4-0.4-1-0.7-1.7-0.7h-0.2V9.9c0-1.7-0.7-3.3-1.9-4.4c-1.1-1.1-2.7-1.8-4.4-1.8
	c-1.7,0-3.3,0.7-4.4,1.8h-0.1c-1.1,1.1-1.8,2.7-1.8,4.4v2.6h-0.2c-0.7,0-1.3,0.3-1.7,0.7l0,0c-0.4,0.4-0.7,1-0.7,1.7v8.8
	c0,0.7,0.3,1.3,0.7,1.7c0.4,0.4,1,0.7,1.7,0.7h12.9c0.6,0,1.2-0.2,1.6-0.6l0.1-0.1c0.4-0.4,0.7-1,0.7-1.7v-8.8
	C26.9,14.1,26.6,13.6,26.2,13.1z M13.7,9.9c0-1.2,0.5-2.3,1.3-3l0,0c0.8-0.8,1.8-1.2,3-1.2s2.3,0.5,3.1,1.3c0.8,0.8,1.3,1.9,1.3,3
	v2.6h-8.6C13.7,12.4,13.7,9.9,13.7,9.9z M24.9,23.5c0,0.1,0,0.2-0.1,0.3l0,0c-0.1,0.1-0.2,0.1-0.3,0.1h-13c-0.1,0-0.2,0-0.3-0.1
	s-0.1-0.2-0.1-0.3v-8.8c0-0.1,0-0.2,0.1-0.3s0.2-0.1,0.3-0.1h12.9c0.1,0,0.2,0.1,0.3,0.1c0.1,0.1,0.1,0.2,0.1,0.3v8.8H24.9z M18,16
	c-0.6,0-1.3,0.3-1.7,0.7c-0.4,0.4-0.7,1-0.7,1.7s0.3,1.3,0.7,1.7c0.3,0.3,0.7,0.5,1.1,0.6v1.2c0,0.3,0.3,0.6,0.6,0.6
	c0.3,0,0.6-0.3,0.6-0.6v-1.2c0.4-0.1,0.8-0.3,1.1-0.6c0.4-0.4,0.7-1,0.7-1.7s-0.3-1.3-0.7-1.7C19.3,16.1,18.7,16,18,16z M18.9,19.1
	c-0.2,0.2-0.5,0.3-0.8,0.4H18c-0.3,0-0.6-0.1-0.8-0.4c-0.2-0.2-0.4-0.5-0.4-0.9c0-0.3,0.1-0.6,0.4-0.9c0.2-0.2,0.5-0.4,0.8-0.4
	s0.6,0.1,0.9,0.4c0.2,0.2,0.4,0.5,0.4,0.9C19.2,18.6,19.1,19,18.9,19.1z"/>
<g>
	<path fill="#525A63" d="M23.5,11.8L23.5,11.8l-0.1-3.5C23.4,3.8,19.6,0,15,0S6.6,3.8,6.6,8.4c0,0.4,0,2.2,0,3.5H6.5
		c-1.9,0-3.4,1.5-3.4,3.4v11.4c0,1.9,1.5,3.4,3.4,3.4h17c1.9,0,3.4-1.5,3.4-3.4V15.2C26.8,13.3,25.4,11.8,23.5,11.8z M15,1.4
		c3.9,0,7.1,3.2,7.1,7.1v3.5H7.9c0-1.3,0-3.1,0-3.5C7.9,4.5,11.1,1.4,15,1.4z M25.5,26.6c0,1.1-0.9,2-2,2h-17c-1.1,0-2-0.9-2-2V15.2
		c0-1.1,0.9-2,2-2h17c1.1,0,2,0.9,2,2V26.6z"/>
	<path fill="#525A63" d="M18.2,19.1c0-1.8-1.4-3.2-3.2-3.2s-3.2,1.4-3.2,3.2c0,1.6,1.1,2.9,2.6,3.2v1.8c0,0.4,0.3,0.7,0.7,0.7l0,0
		c0.4,0,0.7-0.3,0.7-0.7v-1.8C17.1,22,18.2,20.7,18.2,19.1z M15,21c-1,0-1.9-0.8-1.9-1.9c0-1,0.8-1.9,1.9-1.9c1,0,1.9,0.8,1.9,1.9
		C16.9,20.2,16,21,15,21z"/>
</g>
</svg>
