<?xml version="1.0" encoding="utf-8"?>
<!-- Generator: Adobe Illustrator 22.0.1, SVG Export Plug-In . SVG Version: 6.00 Build 0)  -->
<svg version="1.1" id="Layer_1" xmlns="http://www.w3.org/2000/svg" xmlns:xlink="http://www.w3.org/1999/xlink" x="0px" y="0px"
	 viewBox="0 0 512 512" enable-background="new 0 0 512 512" xml:space="preserve">
<path fill="none" stroke="#525A63" stroke-miterlimit="10" d="M0,373.6l234.1,135.1v-198L0,175.6V373.6z M438.2,108.6v20.8
	c0,15.4-29.5,27.9-66,27.9c-36.4,0-65.9-12.5-65.9-27.9V95h0.2c2.2,14.5,30.7,26.1,65.7,26.1c36.5,0,66-12.5,66-27.9
	c0-15.4-29.5-27.9-66-27.9c-2.9,0-5.8,0.1-8.5,0.3l-42.4-24.5v26.2c0,15.4-29.5,27.9-65.9,27.9c-22.9,0-43-4.9-54.9-12.4
	c-1.7-1.7-3.8-3.4-6.2-5c-3.1-3.2-4.8-6.8-4.8-10.5V41.9l-41,23.7c-3-0.1-5.9-0.3-9-0.3c-36.4,0-65.9,12.5-65.9,27.9
	c0,15.4,29.5,27.9,65.9,27.9c35,0,63.5-11.5,65.7-26.1h0.2v34.4c0,15.4-29.5,27.9-65.9,27.9c-36.4,0-65.9-12.5-65.9-27.9v-20.5
	l-50.8,29.3l234.9,135.6l233.4-134.7L438.2,108.6z M321.7,194.9c0,15.4-29.5,27.9-65.9,27.9c-36.4,0-66-12.5-66-27.9v-34.4h0.2
	c2.2,14.5,30.7,26.1,65.8,26.1c35,0,63.5-11.5,65.7-26.1h0.2V194.9L321.7,194.9z M277.8,312.5v196.3L512,373.6V177.4L277.8,312.5z
	 M255.3,58.9c36.4,0,65.9-12.5,65.9-27.9c0-15.4-29.5-27.9-65.9-27.9c-36.4,0-66,12.5-66,27.9C189.3,46.4,218.9,58.9,255.3,58.9"/>
</svg>
