<?xml version="1.0" encoding="utf-8"?>
<!-- Generator: Adobe Illustrator 22.0.1, SVG Export Plug-In . SVG Version: 6.00 Build 0)  -->
<svg version="1.1" id="Layer_1" xmlns="http://www.w3.org/2000/svg" xmlns:xlink="http://www.w3.org/1999/xlink" x="0px" y="0px"
	 viewBox="0 0 64 64" enable-background="new 0 0 64 64" xml:space="preserve">
<g>
	<g>
		<path fill="#525A63" d="M40.6,10.9v0.8l4.5,1.9c0.5-0.1,1-0.1,1.6-0.1L40.6,10.9z"/>
		<path fill="#525A63" d="M21.4,13.2l4.8-1.4V11l-6.1,1.8C20.6,12.9,21,13,21.4,13.2z"/>
		<path fill="#525A63" d="M63.4,20.3l-8.6-3.6v0.8l7.5,3.1l-33.1,9.7L1.8,18.9l7.4-2.2V16l-8.5,2.5h0l-0.2,0.1v0.6v24.7l28.9,12.5
			l34.1-10.2L63.4,20.3z M28.6,55.3L1.2,43.4v-24l27.4,11.4V55.3z M29.4,55.7V31l33.3-9.7l0.1,24.5L29.4,55.7z"/>
	</g>
	<path fill="#525A63" d="M40.6,10.3c0-1.5-3.2-2.8-7.2-2.8c-4,0-7.2,1.2-7.2,2.8c0,0,0,0,0,0h0v4.1h0c0,1.5,3.2,2.8,7.2,2.8
		s7.2-1.2,7.2-2.8h0V10.3L40.6,10.3C40.6,10.3,40.6,10.3,40.6,10.3z M28.5,9.1c1.3-0.5,3-0.8,4.8-0.8c1.8,0,3.6,0.3,4.8,0.8
		c1.1,0.4,1.6,1,1.6,1.3c0,0.3-0.5,0.8-1.6,1.3c-1.3,0.5-3,0.8-4.8,0.8c-1.8,0-3.6-0.3-4.8-0.8c-1.1-0.4-1.6-1-1.6-1.3
		C26.9,10,27.4,9.5,28.5,9.1z M38.2,15.7c-1.3,0.5-3,0.8-4.8,0.8c-1.8,0-3.6-0.3-4.8-0.8c-1.1-0.4-1.6-1-1.6-1.3v-2.9
		c1.2,0.9,3.6,1.6,6.5,1.6c2.9,0,5.3-0.6,6.5-1.6v2.9C39.9,14.7,39.4,15.3,38.2,15.7z"/>
	<path fill="#525A63" d="M54.7,16.2c0-1.5-3.2-2.8-7.2-2.8s-7.2,1.2-7.2,2.8c0,0,0,0,0,0h0v4.1h0c0,1.5,3.2,2.8,7.2,2.8
		s7.2-1.2,7.2-2.8h0V16.2L54.7,16.2C54.7,16.2,54.7,16.2,54.7,16.2z M42.7,14.9c1.3-0.5,3-0.8,4.8-0.8c1.8,0,3.6,0.3,4.8,0.8
		c1.1,0.4,1.6,1,1.6,1.3c0,0.3-0.5,0.8-1.6,1.3c-1.3,0.5-3,0.8-4.8,0.8c-1.8,0-3.6-0.3-4.8-0.8c-1.1-0.4-1.6-1-1.6-1.3
		C41,15.8,41.5,15.3,42.7,14.9z M52.4,21.5c-1.3,0.5-3,0.8-4.8,0.8c-1.8,0-3.6-0.3-4.8-0.8c-1.1-0.4-1.6-1-1.6-1.3v-2.9
		c1.2,0.9,3.6,1.6,6.5,1.6c2.9,0,5.3-0.6,6.5-1.6v2.9C54,20.5,53.5,21.1,52.4,21.5z"/>
	<path fill="#525A63" d="M37.6,21.2c0-1.5-3.2-2.8-7.2-2.8s-7.2,1.2-7.2,2.8c0,0,0,0,0,0h0v4.1h0c0,1.5,3.2,2.8,7.2,2.8
		s7.2-1.2,7.2-2.8h0V21.2L37.6,21.2C37.6,21.2,37.6,21.2,37.6,21.2z M25.6,19.9c1.3-0.5,3-0.8,4.8-0.8s3.6,0.3,4.8,0.8
		c1.1,0.4,1.6,1,1.6,1.3c0,0.3-0.5,0.8-1.6,1.3c-1.3,0.5-3,0.8-4.8,0.8s-3.6-0.3-4.8-0.8c-1.1-0.4-1.6-1-1.6-1.3
		C23.9,20.8,24.4,20.3,25.6,19.9z M35.2,26.5c-1.3,0.5-3,0.8-4.8,0.8s-3.6-0.3-4.8-0.8c-1.1-0.4-1.6-1-1.6-1.3v-2.9
		c1.2,0.9,3.6,1.6,6.5,1.6c2.9,0,5.3-0.6,6.5-1.6v2.9C36.9,25.5,36.4,26.1,35.2,26.5z"/>
	<path fill="#525A63" d="M23.6,15.1c0-1.5-3.2-2.8-7.2-2.8s-7.2,1.2-7.2,2.8c0,0,0,0,0,0h0v4.1h0c0,1.5,3.2,2.8,7.2,2.8
		s7.2-1.2,7.2-2.8h0V15.1L23.6,15.1C23.6,15.1,23.6,15.1,23.6,15.1z M11.5,13.9c1.3-0.5,3-0.8,4.8-0.8s3.6,0.3,4.8,0.8
		c1.1,0.4,1.6,1,1.6,1.3c0,0.3-0.5,0.8-1.6,1.3c-1.3,0.5-3,0.8-4.8,0.8s-3.6-0.3-4.8-0.8c-1.1-0.4-1.6-1-1.6-1.3
		C9.9,14.8,10.4,14.3,11.5,13.9z M21.2,20.5c-1.3,0.5-3,0.8-4.8,0.8s-3.6-0.3-4.8-0.8c-1.1-0.4-1.6-1-1.6-1.3v-2.9
		c1.2,0.9,3.6,1.6,6.5,1.6c2.9,0,5.3-0.6,6.5-1.6v2.9C22.9,19.5,22.3,20.1,21.2,20.5z"/>
</g>
</svg>
