<?xml version="1.0" encoding="utf-8"?>
<!-- Generator: Adobe Illustrator 22.0.1, SVG Export Plug-In . SVG Version: 6.00 Build 0)  -->
<svg version="1.1" id="Layer_1" xmlns="http://www.w3.org/2000/svg" xmlns:xlink="http://www.w3.org/1999/xlink" x="0px" y="0px"
	 viewBox="0 0 64 64" enable-background="new 0 0 64 64" xml:space="preserve">
<g>
	<path fill="#8A8A8A" d="M0,8.5c0-2.1,0.7-3.8,2.2-5.1c1.4-1.3,3.3-2,5.6-2s4.1,0.7,5.5,2c1.4,1.4,2.2,3.1,2.2,5.3
		c0,2-0.7,3.6-2.1,4.9c-1.4,1.4-3.3,2-5.7,2H7.6c-2.3,0-4.1-0.7-5.5-2S0,10.6,0,8.5z"/>
	<rect x="0.8" y="21.3" fill="#8A8A8A" width="13.7" height="41.3"/>
	<path fill="#8A8A8A" d="M22.1,62.6h13.7v-23c0-1.4,0.2-2.6,0.5-3.3c0.6-1.4,1.5-2.6,2.6-3.6c1.2-1,2.6-1.5,4.4-1.5
		c4.6,0,6.9,3.1,6.9,9.3v22.1H64V38.9c0-6.1-1.4-10.7-4.3-13.9c-2.9-3.2-6.7-4.7-11.4-4.7c-5.3,0-9.5,2.3-12.4,6.9v0.1h-0.1l0.1-0.1
		v-5.9H22.1c0.1,1.3,0.1,5.4,0.1,12.3S22.2,50.1,22.1,62.6z"/>
</g>
</svg>
