<?xml version="1.0" encoding="utf-8"?>
<!-- Generator: Adobe Illustrator 22.0.1, SVG Export Plug-In . SVG Version: 6.00 Build 0)  -->
<svg version="1.1" id="Layer_1" xmlns="http://www.w3.org/2000/svg" xmlns:xlink="http://www.w3.org/1999/xlink" x="0px" y="0px"
	 viewBox="0 0 64 64" enable-background="new 0 0 64 64" xml:space="preserve">
<title>Layer 1</title>
<g>
	<path fill="#525A63" d="M55.1,1c2.5,0,4.4,0.7,5.8,2c1.5,1.6,2.2,3.6,2.1,5.9c0,7.9-6.8,19.8-17.3,30.2c-0.6,0.6-1.1,1-1.7,1.5
		l-0.5,0.4l0.2,0.6c0,0.1,0,0.2,0.1,0.2c0,0.1,0.1,0.3,0.1,0.5c0.9,4.1-1.5,16.8-16.6,20.6c0,0,0,0-0.1,0c0,0,0,0,0,0
		c4.2-5.7,5.8-10.3,5.1-14.4L32,47.2l-1.2,0.7c-0.1,0.1-0.3,0.2-0.4,0.2c-0.3,0.2-0.6,0.3-0.9,0.6l-1.6-1.6l-0.7-0.7l-0.7,0.7
		l-2.9,2.9l-9.8-9.8l2.9-2.9l0.7-0.7L16.7,36l-1.5-1.6l0,0c0.1-0.2,0.3-0.5,0.4-0.7c0.1-0.2,0.2-0.4,0.4-0.7l0.8-1.3l-1.5-0.2
		c-0.6-0.1-1.1-0.1-1.7-0.1c-3.6,0-7.6,1.7-12.5,5.2c0,0-0.1,0-0.1,0c0,0,0,0,0,0c0,0,0,0,0,0C5.1,20,19.4,19.8,20,19.8
		c0.7,0,1.3,0.1,1.8,0.2l0.1,0c0.1,0,0.1,0.1,0.2,0.1l0.7,0.4l0.5-0.6c0.5-0.6,1-1.2,1.4-1.6C35.2,7.8,47.2,1,55.1,1 M55.1,0
		c-8,0-20,6.5-31.1,17.5c-0.5,0.5-1,1.1-1.5,1.7C22.3,19.1,22.2,19,22,19c-0.5-0.1-1.2-0.2-2-0.2c-5.6,0-16.5,3.6-20,17.5
		c-0.1,0.4,0.1,0.8,0.4,1.1c0.2,0.1,0.4,0.2,0.6,0.2s0.4-0.1,0.6-0.2c4.7-3.4,8.6-5,12-5c0.5,0,1,0,1.5,0.1
		c-0.3,0.5-0.5,0.9-0.8,1.4c-0.2,0.4-0.2,0.9,0.2,1.2l1.5,1.6l-2.9,2.9c-0.2,0.2-0.3,0.4-0.3,0.7s0.1,0.5,0.3,0.7l9.8,9.8
		c0.2,0.2,0.4,0.3,0.7,0.3c0.3,0,0.5-0.1,0.7-0.3l2.9-2.9l1.6,1.6c0.2,0.2,0.4,0.3,0.7,0.3c0.2,0,0.4-0.1,0.5-0.2
		c0.4-0.3,0.8-0.5,1.3-0.8c0.7,3.8-0.9,8.2-4.9,13.6c-0.3,0.4-0.3,1.1,0.2,1.4c0.2,0.1,0.4,0.2,0.7,0.2c0.1,0,0.2,0,0.2,0
		c15.9-4,18.3-17.6,17.3-21.9c-0.1-0.2-0.1-0.4-0.2-0.7c0.6-0.5,1.2-1,1.8-1.6C57.1,29.2,64,17.1,64,8.9c0.1-2.4-0.7-4.8-2.4-6.6
		C60,0.7,57.8,0,55.1,0L55.1,0z"/>
</g>
<path fill="none" stroke="#525A63" stroke-miterlimit="10" d="M22.5,19.2"/>
<g>
	<path fill="#525A63" d="M47,13c2.2,0,4,1.8,4,4c0,1.2-0.4,2.2-1.2,2.9C49,20.7,48,21.1,47,21.1c-1,0-2-0.4-2.9-1.2
		c-1.6-1.6-1.6-4.1,0-5.7C44.9,13.4,45.9,13,47,13 M47,12c-1.4,0-2.6,0.5-3.6,1.5c-2,2-2,5.1,0,7.1c1,1,2.2,1.5,3.6,1.5
		c1.3,0,2.6-0.5,3.5-1.5c1-0.9,1.5-2.1,1.5-3.6C52,14.2,49.8,12,47,12L47,12z"/>
</g>
<path fill="#525A63" d="M16.5,47.2c-0.4-0.4-1-0.4-1.4,0l-10,10c-0.4,0.4-0.5,1-0.1,1.4s1,0.5,1.4,0.1l0.1-0.1l10-10
	C16.8,48.2,16.8,47.5,16.5,47.2z"/>
<path fill="#525A63" d="M5.7,52c0.3,0,0.5-0.1,0.7-0.3l6.6-6.6c0.4-0.4,0.3-1-0.1-1.4c-0.4-0.3-0.9-0.3-1.3,0L5,50.3
	c-0.4,0.4-0.4,1,0,1.4C5.2,51.9,5.4,52,5.7,52z"/>
<path fill="#525A63" d="M18.5,50.6l-6.6,6.6c-0.4,0.4-0.4,1,0,1.4s1,0.4,1.4,0l6.6-6.6c0.4-0.4,0.4-1,0-1.4
	C19.5,50.2,18.9,50.2,18.5,50.6L18.5,50.6z"/>
</svg>
