<?xml version="1.0" encoding="utf-8"?>
<!-- Generator: Adobe Illustrator 22.0.1, SVG Export Plug-In . SVG Version: 6.00 Build 0)  -->
<svg version="1.1" id="Capa_1" xmlns="http://www.w3.org/2000/svg" xmlns:xlink="http://www.w3.org/1999/xlink" x="0px" y="0px"
	 viewBox="0 0 53.8 53.8" enable-background="new 0 0 53.8 53.8" xml:space="preserve">
<g>
	<path fill="#525A63" d="M49.6,28.8c0-5.8-4.5-10.5-10.1-10.9v0H31v1.7h7.6c5.1,0,9.3,4.2,9.3,9.3s-4.2,9.3-9.3,9.3H15v-6.6
		c0-0.3-0.2-0.6-0.5-0.8c-0.3-0.1-0.7-0.1-0.9,0.1l-9.1,7.9c-0.2,0.2-0.3,0.4-0.3,0.6c0,0.2,0.1,0.5,0.3,0.6l9.1,7.9
		c0.2,0.1,0.4,0.2,0.6,0.2c0.1,0,0.2,0,0.4-0.1c0.3-0.1,0.5-0.4,0.5-0.8v-7.4h24.5v0C45.2,39.3,49.6,34.6,49.6,28.8z M13.3,45.4
		l-7-6l7-6V45.4z"/>
</g>
<g>
	<path fill="#525A63" d="M21.2,29v-3.1c-1.8,0-3.6-0.6-4.7-1.3l0.7-2c1.1,0.7,2.7,1.3,4.4,1.3c2.2,0,3.6-1.2,3.6-3
		c0-1.7-1.2-2.7-3.4-3.6c-3.1-1.2-5-2.6-5-5.3c0-2.5,1.8-4.4,4.6-4.9V4h1.9v2.9c1.8,0.1,3.1,0.5,4,1.1l-0.8,2c-0.6-0.4-1.9-1-3.8-1
		c-2.3,0-3.2,1.4-3.2,2.6c0,1.6,1.1,2.4,3.8,3.5c3.1,1.3,4.7,2.9,4.7,5.6c0,2.4-1.7,4.7-4.8,5.2V29H21.2z"/>
</g>
</svg>
